<mxfile host="app.diagrams.net" modified="2023-04-26T10:53:08.659Z" agent="Mozilla/5.0 (X11; Linux x86_64) AppleWebKit/537.36 (KHTML, like Gecko) Chrome/110.0.0.0 Safari/537.36" version="21.2.2" etag="VoQkZ6MjZmDoXRZXvXDF" type="github">
  <diagram name="第 1 页" id="WNmO6rOC3a4mSjJoMNMk">
    <mxGraphModel>
      <root>
        <mxCell id="0" />
        <mxCell id="1" parent="0" />
      </root>
    </mxGraphModel>
  </diagram>
</mxfile>
